<?xml version="1.0" encoding="utf-8"?>
<!-- Designed by Vexels.com - 2016 All Rights Reserved - https://vexels.com/terms-and-conditions/  -->

<svg version="1.1" id="Layer_1" xmlns="http://www.w3.org/2000/svg" xmlns:xlink="http://www.w3.org/1999/xlink" x="0px" y="0px"
	 width="1200px" height="1200px" viewBox="0 0 1200 1200" enable-background="new 0 0 1200 1200" xml:space="preserve">
<path fill="#373636" d="M908.701,55.625c-68.045-22.157-75.963,25.323-80.711,69.637c-4.748,44.322-39.573,39.567-39.573,39.567
	c4.979-9.792-0.941-15.419-0.941-15.419H604.169h-8.337H412.525c0,0-5.92,5.627-0.941,15.419c0,0-34.826,4.755-39.573-39.567
	c-4.747-44.314-12.665-91.794-80.71-69.637c-41.152,15.828-53.817,50.647-34.827,50.647c0,34.818,36.404,163.024,87.05,232.658
	c50.647,69.637,90.206,85.465,126.61,112.373c7.918,12.662,14.011,20.88,22.074,26.93c8.062,18.155,15.127,27.23,34.291,36.309
	s44.379,72.626,38.329,111.962c-12.101,4.038-21.177,26.228-4.024,42.367c-1.013,26.22-9.076,108.932-49.431,136.166
	c-40.341,27.234-64.557,62.538-64.557,62.538h-42.352v11.094h-15.141l-4.038,12.104v191.644l-14.113,8.07v45.392h-10.089V1150
	h209.534h58.767h209.534v-14.12h-10.089v-45.392l-14.113-8.07V890.773l-4.038-12.104h-15.141v-11.094h-42.352
	c0,0-24.201-35.304-64.557-62.538c-40.34-27.234-48.418-109.946-49.431-136.166c17.153-16.14,8.077-38.329-4.023-42.367
	c-6.051-39.335,19.164-102.883,38.328-111.962c19.165-9.079,26.228-18.155,34.291-36.309c8.062-6.05,14.156-14.268,22.059-26.93
	c36.418-26.908,75.978-42.736,126.624-112.373c50.647-69.634,87.05-197.84,87.05-232.658
	C962.517,106.271,949.852,71.453,908.701,55.625z M393.36,362.237c-26.228-26.225-80.695-84.727-104.897-184.584
	c-14.128-46.402,0-88.762,26.228-99.86c26.213-11.094,37.316,20.174,39.328,33.288c2.026,13.115-0.999,69.597,64.556,72.623
	c0,0,35.304,80.692,39.342,220.898C445.817,407.626,419.588,388.461,393.36,362.237z M739.709,919.3
	c0,11.645,13.317,13.215,13.317,13.215l-0.015,128.194c-10.812,0-10.812,9.148-10.812,9.148H610.798h-22.494H456.918
	c0,0,0-9.148-10.813-9.148l-0.014-128.194c0,0,13.331-1.57,13.331-13.215h128.882h22.494H739.709z M911.537,177.653
	c-24.202,99.857-78.67,158.36-104.898,184.584c-26.228,26.224-52.456,45.389-64.557,42.364
	c4.039-140.205,39.342-220.898,39.342-220.898c65.57-3.025,62.545-59.508,64.557-72.623c2.012-13.114,13.114-44.382,39.342-33.288
	C911.537,88.891,925.664,131.251,911.537,177.653z"/>
</svg>
